<svg width="38" height="38" fill="none" xmlns="http://www.w3.org/2000/svg"><path d="M19.388 37.223C29.667 37.223 38 28.891 38 18.612 38 8.332 29.667 0 19.388 0 9.109 0 .776 8.333.776 18.612c0 10.279 8.333 18.611 18.612 18.611z" fill="#D9D9D9"/><path d="M19.388 21.054l11.109-9.51a1.193 1.193 0 00-.64-.203H8.92c-.233 0-.465.088-.64.204l11.11 9.51z" fill="#fff"/><path d="M20.144 21.926a1.15 1.15 0 01-1.512 0L7.756 12.65v12.068c0 .64.523 1.163 1.163 1.163h20.938c.64 0 1.163-.523 1.163-1.163V12.621l-10.876 9.305z" fill="#fff"/></svg>