<svg width="13" height="13" fill="none" xmlns="http://www.w3.org/2000/svg"><path d="M11.698 6.46h-.918a.344.344 0 00-.345.344v4.186c0 .223-.18.403-.403.403H2.01a.403.403 0 01-.403-.403V2.968c0-.222.18-.403.403-.403h4.4c.19 0 .344-.154.344-.345v-.918A.344.344 0 006.41.958h-4.4C.9.958 0 1.86 0 2.968v8.023C0 12.099.902 13 2.01 13h8.022c1.108 0 2.01-.902 2.01-2.01V6.804a.344.344 0 00-.344-.344z" fill="#354D6F"/><path d="M12.656 0H9.004a.344.344 0 00-.345.344v.918c0 .19.154.345.345.345h1.253L5.54 6.323a.344.344 0 000 .487l.65.65a.344.344 0 00.486 0l4.717-4.717v1.253c0 .19.154.345.345.345h.918c.19 0 .344-.155.344-.345V.344A.344.344 0 0012.656 0z" fill="#354D6F"/></svg>