<svg width="39" height="38" fill="none" xmlns="http://www.w3.org/2000/svg"><path d="M.889 37.223l3.2-9.603a18.194 18.194 0 01-2.559-9.33C1.53 8.19 9.72 0 19.821 0c10.102 0 18.291 8.19 18.291 18.29 0 10.102-8.19 18.291-18.29 18.291a18.21 18.21 0 01-8.51-2.1L.888 37.223z" fill="#D9D9D9"/><path d="M31.491 24.378c-.844-1.596-3.959-3.421-3.959-3.421-.704-.402-1.555-.447-1.956.27 0 0-1.013 1.213-1.27 1.387-1.176.797-2.265.766-3.364-.333l-2.555-2.555-2.555-2.555c-1.1-1.1-1.13-2.189-.334-3.364.175-.258 1.388-1.27 1.388-1.27.717-.402.672-1.252.27-1.957 0 0-1.825-3.114-3.421-3.959a1.75 1.75 0 00-2.056.31l-1.128 1.128c-3.58 3.579-1.817 7.62 1.762 11.199l3.271 3.271 3.271 3.271c3.58 3.58 7.62 5.342 11.2 1.762l1.128-1.128a1.75 1.75 0 00.308-2.056z" fill="#fff"/></svg>