<svg width="38" height="38" fill="none" xmlns="http://www.w3.org/2000/svg"><path d="M18.612 37.223c10.279 0 18.611-8.332 18.611-18.611C37.223 8.332 28.891 0 18.612 0 8.332 0 0 8.333 0 18.612 0 28.89 8.333 37.223 18.612 37.223z" fill="#D9D9D9"/><path fill-rule="evenodd" clip-rule="evenodd" d="M19.221 23.06c-.717.698-1.427 1.384-2.131 2.076-.246.242-.523.377-.876.358-.241-.013-.376-.119-.45-.348-.54-1.673-1.086-3.343-1.623-5.018-.052-.163-.129-.242-.294-.293-1.27-.388-2.538-.785-3.804-1.187a2.16 2.16 0 01-.56-.258c-.26-.176-.298-.464-.065-.67.216-.191.473-.357.74-.463 1.553-.616 3.115-1.211 4.673-1.812L26.7 10.864c.752-.29 1.33.119 1.252.932-.05.52-.185 1.033-.294 1.546-.859 4.056-1.718 8.113-2.582 12.168-.205.963-.881 1.214-1.674.63-1.327-.978-2.653-1.96-3.98-2.94l-.2-.14zm-2.979 1.231l.045-.012c.008-.038.02-.075.023-.113.085-.92.176-1.838.25-2.76a.676.676 0 01.24-.488c1.224-1.094 2.44-2.195 3.659-3.293 1.348-1.217 2.698-2.432 4.041-3.653.083-.076.118-.204.175-.308-.126-.014-.262-.065-.377-.035-.157.04-.305.132-.445.22-2.977 1.875-5.95 3.753-8.93 5.624-.168.106-.2.195-.135.38.22.631.42 1.268.627 1.903l.827 2.535z" fill="#fff"/></svg>