<svg width="61" height="78" fill="none" xmlns="http://www.w3.org/2000/svg"><path d="M59.817 6.957L30.277 0h-.266L.471 6.957a.59.59 0 00-.47.591v31.627a35.376 35.376 0 0018.158 30.94l11.66 7.439c.095.066.209.1.325.096.1 0 .2-.026.29-.072l13.202-7.163A35.147 35.147 0 0060.287 40.38V7.548a.59.59 0 00-.47-.59zm-.735 33.423a33.979 33.979 0 01-16.037 28.938l-12.901 7.03-11.394-7.235A34.159 34.159 0 011.206 39.175V8.018l28.938-6.812 28.938 6.812V40.38z" fill="#354D6F"/><path d="M14.276 50.858a.59.59 0 00-.832-.193.579.579 0 00-.193.82c.431.706.902 1.386 1.41 2.038a.567.567 0 00.471.23.592.592 0 00.482-.965 21.168 21.168 0 01-1.338-1.93zm-1.133-2.038a22.685 22.685 0 01-.917-2.157.605.605 0 00-.982-.254.603.603 0 00-.151.663c.279.777.6 1.538.964 2.28a.58.58 0 00.543.337.76.76 0 00.265-.06.615.615 0 00.277-.808zm3.99 5.752a.604.604 0 10-.868.82 24.122 24.122 0 001.82 1.712.59.59 0 00.845-.072.615.615 0 000-.856c-.687-.507-1.254-1.05-1.797-1.604zm-5.594-10.176a25.064 25.064 0 01-.458-2.303.61.61 0 00-1.206.168c.12.812.28 1.617.482 2.412a.603.603 0 00.58.458h.144a.604.604 0 00.458-.735zM26.804 61.47l-2.037-1.303a.607.607 0 00-.651 1.025l2.037 1.29c.096.066.21.1.326.096a.59.59 0 00.506-.277.603.603 0 00-.18-.832zm-7.85-46.627l-2.351.555a.607.607 0 00.132 1.205h.145l2.412-.554a.618.618 0 10-.278-1.206h-.06zm3.786 44.034l-.156-.097c-.639-.362-1.278-.748-1.88-1.206a.603.603 0 00-.931.608.615.615 0 00.243.393 28.47 28.47 0 001.941 1.206l.133.084a.603.603 0 00.65-1.013v.025zM10.25 30.734a.603.603 0 00.602-.602V27.72a.603.603 0 10-1.206 0v2.412a.603.603 0 00.603.602zm11.188-15.252h.132l2.412-.543a.615.615 0 00.446-.735.603.603 0 00-.724-.447l-2.411.555a.603.603 0 00-.446.724.603.603 0 00.59.446zm-9.38 2.206h.132l2.351-.554a.619.619 0 00-.277-1.206l-2.339.555a.607.607 0 00.133 1.205zm14.071-3.316h.144l2.34-.518a.62.62 0 00-.278-1.206l-2.339.543a.602.602 0 00-.446.735.579.579 0 00.579.446zM10.25 21.088a.603.603 0 00.602-.602v-2.412a.603.603 0 10-1.206 0v2.412a.603.603 0 00.603.602zm.035 19.292a.602.602 0 00.579-.627v-2.387a.603.603 0 10-1.206 0v2.436a.615.615 0 00.603.578h.024zm-.035-4.823a.603.603 0 00.602-.603v-2.411a.603.603 0 00-1.206 0v2.411a.603.603 0 00.603.603zm0-9.645a.603.603 0 00.602-.603v-2.412a.603.603 0 00-1.206 0v2.412a.603.603 0 00.603.603zm20.026 37.655h-.109l-1.338-.844a.603.603 0 00-.913.638.591.591 0 00.274.375l1.628 1.036c.095.067.21.1.325.097a.64.64 0 00.29-.072l.41-.217a.592.592 0 00.24-.82.59.59 0 00-.807-.193zM44.77 16.892l2.35.543h.133a.603.603 0 00.591-.47.603.603 0 00-.446-.724l-2.412-.554a.603.603 0 00-.723.446.615.615 0 00.506.76zm-2.038 39.742c.115.115.271.18.434.18a.65.65 0 00.422-.168 30.01 30.01 0 001.664-1.833.608.608 0 00.112-.21c.023-.076.03-.156.023-.236a.607.607 0 00-.429-.522c-.076-.023-.157-.031-.236-.023a.607.607 0 00-.41.22 21.687 21.687 0 01-1.58 1.748.603.603 0 000 .844zm5.498-7.814h.217a.616.616 0 00.567-.373c.306-.789.568-1.594.783-2.412a.625.625 0 00-1.205-.325c-.217.76-.47 1.507-.748 2.23a.601.601 0 00.386.88zM34.509 61.264l-2.123 1.205a.615.615 0 00-.24.82.605.605 0 00.82.242l2.121-1.206a.605.605 0 00-.578-1.061zm-3.823-47.687l2.351.554h.133a.615.615 0 00.59-.47.603.603 0 00-.446-.723l-2.411-.555a.619.619 0 00-.277 1.206l.06-.012zm4.691 1.097l2.351.555h.145a.607.607 0 00.133-1.206l-2.412-.555a.619.619 0 10-.277 1.206h.06zm14.059 3.304v1.495a.603.603 0 001.205 0v-2.002a.615.615 0 00-.47-.59l-.434-.097a.621.621 0 10-.301 1.206v-.012zm-9.356-2.195l2.339.555h.144a.603.603 0 00.591-.458.627.627 0 00-.458-.736l-2.34-.542a.619.619 0 10-.276 1.205v-.024zm.915 41.574c-.61.496-1.245.96-1.905 1.387a.483.483 0 00-.156.157.533.533 0 00-.181 0l-2.122 1.205a.615.615 0 00-.242.82.59.59 0 00.531.314.64.64 0 00.29-.073l2.11-1.145a.786.786 0 00.216-.18.577.577 0 00.218-.097c.692-.447 1.36-.93 2.001-1.447a.605.605 0 00-.76-.94zm9.031-16.784a.627.627 0 00-.639.567c-.05.78-.142 1.557-.277 2.327a.615.615 0 00.494.7h.097a.615.615 0 00.603-.495c.128-.804.225-1.607.289-2.411a.615.615 0 00-.567-.688zM47.7 49.87a.615.615 0 00-.82.253 21.144 21.144 0 01-1.206 2.026.615.615 0 00.169.844c.102.06.218.094.337.096a.615.615 0 00.507-.277c.439-.69.841-1.402 1.206-2.134a.602.602 0 00-.193-.808zm2.338-28.589a.603.603 0 00-.602.603v2.412a.603.603 0 001.205 0v-2.412a.603.603 0 00-.603-.603zm0 4.824a.603.603 0 00-.602.602v2.412a.603.603 0 001.205 0v-2.412a.603.603 0 00-.603-.602zm0 4.822a.603.603 0 00-.602.603v2.412a.603.603 0 001.205 0V31.53a.603.603 0 00-.603-.603zm0 4.823a.603.603 0 00-.602.603v2.412a.603.603 0 001.205 0v-2.412a.603.603 0 00-.603-.602zM27.37 40.706l-4.46-5.908a.59.59 0 00-.844-.12.615.615 0 00-.121.843l4.823 6.427.133.096h.072a.65.65 0 00.253 0 .57.57 0 00.338-.108h.169l11.25-9.646a.615.615 0 00.072-.856.615.615 0 00-.856-.06L27.37 40.705z" fill="#354D6F"/></svg>