<svg width="77" height="78" fill="none" xmlns="http://www.w3.org/2000/svg"><path d="M46.774 30.006c.4.099.81.21 1.227.332h.185a.626.626 0 00.589-.43.627.627 0 00-.405-.773l-1.228-.356a.627.627 0 00-.749.454.603.603 0 00.38.773zm-17.386 4.519a.577.577 0 00.417-.16c.308-.282.614-.54.921-.798a.614.614 0 00.099-.86.626.626 0 00-.872-.097l-.982.847a.614.614 0 000 .871.59.59 0 00.417.197zm11.296-4.985h1.228a.613.613 0 00.601-.626.601.601 0 00-.638-.602 9.9 9.9 0 00-1.228.074.614.614 0 000 1.228l.037-.074zM28.996 60.59a.626.626 0 00-.872 0 .613.613 0 000 .872c.307.307.614.614.933.908a.65.65 0 00.418.16.662.662 0 00.454-.196.626.626 0 000-.872c-.368-.283-.65-.577-.933-.872zm5.623-29.503a.96.96 0 00.258 0c.368-.172.736-.32 1.117-.467a.601.601 0 00.368-.786.614.614 0 00-.785-.368l-1.228.491a.614.614 0 00-.307.81.6.6 0 00.577.32zM23.9 42.972a.626.626 0 00-.736.454c-.086.43-.172.847-.245 1.228a.614.614 0 00.503.7h.098a.613.613 0 00.614-.516c0-.405.135-.798.233-1.228a.614.614 0 00-.466-.638zm-.577 6.225a.604.604 0 00-.552.662c0 .442.098.872.172 1.228a.602.602 0 00.601.516h.11a.614.614 0 00.504-.7 12.854 12.854 0 01-.16-1.228.614.614 0 00-.675-.478zm3.193-11.947a.627.627 0 00-.847.197 16.6 16.6 0 00-.65 1.13.602.602 0 00.245.822.65.65 0 00.294.074.601.601 0 00.54-.32c.197-.355.394-.711.615-1.055a.613.613 0 00-.197-.847zm25.82-4.825c.344.221.675.454.994.7.106.08.236.124.369.123a.59.59 0 00.49-.246.614.614 0 00-.122-.86c-.344-.257-.7-.503-1.056-.748a.626.626 0 00-.86.184.614.614 0 00.185.847zM25.582 55.593a.6.6 0 00-.81-.307.626.626 0 00-.307.81c.184.394.38.786.59 1.228a.627.627 0 00.54.32.65.65 0 00.294-.074.626.626 0 00.246-.835c-.197-.417-.38-.773-.553-1.142zM57.53 37.496a.615.615 0 00.503.27.577.577 0 00.343-.11.614.614 0 00.172-.848 16.342 16.342 0 00-.773-1.043.614.614 0 00-.97.749c.246.319.491.65.724.982zm2.11 18.306a.528.528 0 00.234 0 .614.614 0 00.565-.38c.172-.394.319-.799.466-1.229a.614.614 0 00-.853-.747.614.614 0 00-.313.355c-.135.38-.27.76-.43 1.141a.602.602 0 00.332.86zm.443-12.83a.614.614 0 00.59.454h.16a.626.626 0 00.429-.761 18.35 18.35 0 00-.38-1.228.617.617 0 10-1.167.405c.135.369.258.762.368 1.13zm.65 4.911v1.228a.6.6 0 00.565.65.614.614 0 00.614-.565V47.81a.577.577 0 00-.614-.565.639.639 0 00-.565.639zM34.95 64.765c-.368-.16-.736-.344-1.105-.528a.614.614 0 00-.822.258.626.626 0 00.258.834c.392.197.773.381 1.227.553a.567.567 0 00.246 0 .638.638 0 00.565-.368.614.614 0 00-.369-.75zm21.584-3.622a.602.602 0 00.454-.196c.295-.332.565-.663.835-1.007a.614.614 0 00-.97-.75c-.245.32-.503.627-.773.934a.602.602 0 00.454 1.02zM40.82 66.3c-.406 0-.811-.074-1.228-.136a.62.62 0 10-.172 1.228c.417.065.847.115 1.289.147a.614.614 0 000-1.228l.11-.012zm6.04-.566a16.57 16.57 0 01-1.228.258.614.614 0 00-.491.712.602.602 0 00.601.504h.11c.43-.086.848-.172 1.228-.282a.614.614 0 00.442-.75.601.601 0 00-.663-.442zm5.537-2.431c-.332.221-.688.43-1.044.627a.602.602 0 00-.22.834.602.602 0 00.527.32.552.552 0 00.307-.086 20.28 20.28 0 001.105-.676.613.613 0 00-.675-1.019zm2.123-20.245l-8.053-1.228-3.598-7.305a.638.638 0 00-1.105 0l-3.597 7.305-8.054 1.228a.627.627 0 00-.504.417.65.65 0 00.16.639l5.832 5.672-1.375 8.017a.6.6 0 00.245.602.578.578 0 00.639 0l7.207-3.732 7.207 3.781a.564.564 0 00.282.074.553.553 0 00.356-.123.577.577 0 00.246-.602l-1.375-8.017 5.831-5.672a.65.65 0 00.16-.639.626.626 0 00-.503-.417zm-6.568 6.139a.601.601 0 00-.184.54l1.228 7.121-6.397-3.364a.577.577 0 00-.565 0l-6.396 3.364 1.227-7.12a.602.602 0 00-.184-.541l-5.169-5.034 7.121-1.105a.577.577 0 00.467-.331l3.217-6.47 3.192 6.47a.576.576 0 00.466.331l7.146 1.044-5.169 5.095z" fill="#354D6F"/><path d="M76.694.38a.674.674 0 00-.577-.38l-23.13.258a.577.577 0 00-.43.184L39.284 13.665 26.061.442a.577.577 0 00-.43-.184L1.2 0a.65.65 0 00-.577.38.626.626 0 00.147.688l24.728 23.144c-.221.564-.406 1.227-.578 1.78a7.75 7.75 0 01-1.387 3.106 7.748 7.748 0 01-3.106 1.387c-1.658.492-3.377.995-4.162 2.358-.786 1.363-.356 3.057 0 4.714.37 1.11.492 2.288.356 3.45a7.71 7.71 0 01-1.965 2.69c-1.227 1.227-2.455 2.578-2.455 4.186s1.228 2.922 2.455 4.187a7.71 7.71 0 011.965 2.688 7.981 7.981 0 01-.356 3.45c-.393 1.658-.81 3.377 0 4.715s2.455 1.866 4.162 2.357c1.125.227 2.186.7 3.106 1.388.687.92 1.16 1.98 1.387 3.106.492 1.657.995 3.376 2.358 4.162s3.057.356 4.727 0a7.909 7.909 0 013.438-.356 7.711 7.711 0 012.688 1.965C39.358 76.772 40.71 78 42.317 78s2.922-1.228 4.187-2.456a7.71 7.71 0 012.689-1.964 7.908 7.908 0 013.437.356c1.67.393 3.389.81 4.727 0 1.338-.81 1.866-2.455 2.357-4.162a7.747 7.747 0 011.388-3.106 7.747 7.747 0 013.106-1.388c1.657-.49 3.376-.994 4.162-2.357.786-1.363.356-3.057 0-4.715a7.981 7.981 0 01-.356-3.45 7.711 7.711 0 011.965-2.688c1.227-1.228 2.455-2.579 2.455-4.187s-1.228-2.922-2.456-4.187a7.711 7.711 0 01-1.964-2.689 7.981 7.981 0 01.356-3.45c.393-1.657.81-3.376 0-4.714-.81-1.339-2.455-1.867-4.162-2.358a7.747 7.747 0 01-3.106-1.387 7.748 7.748 0 01-1.388-3.106c-.49-1.658-.994-3.377-2.357-4.162a3.303 3.303 0 00-1.535-.418L76.51 1.056a.602.602 0 00.184-.675zm-73.936.848l22.604.245 13.05 13.064-7.145 7.158h-.22l-.468-.099h-2.308l-.368.086h-.16a4.131 4.131 0 00-.478.221 2.687 2.687 0 00-.59.455 1.4 1.4 0 00-.135.135c-.18.2-.344.413-.49.638L2.757 1.228zm55.778 25.108a8.594 8.594 0 001.694 3.683 8.594 8.594 0 003.683 1.694c1.425.418 2.898.86 3.438 1.793.54.933.197 2.32-.16 3.818a8.595 8.595 0 00-.343 4.052 8.264 8.264 0 002.259 3.217c1.031 1.092 2.112 2.222 2.112 3.339s-1.08 2.247-2.112 3.34a8.264 8.264 0 00-2.26 3.216 8.595 8.595 0 00.345 4.052c.356 1.498.7 2.91.16 3.818-.541.909-2.014 1.375-3.439 1.793a8.594 8.594 0 00-3.683 1.694 8.447 8.447 0 00-1.694 3.683c-.418 1.425-.86 2.898-1.793 3.438-.933.54-2.32.197-3.818-.16a8.594 8.594 0 00-4.052-.343 8.262 8.262 0 00-3.216 2.259c-1.093 1.044-2.223 2.112-3.34 2.112s-2.247-1.069-3.34-2.112a8.261 8.261 0 00-3.216-2.26 4.123 4.123 0 00-1.105-.134 12.71 12.71 0 00-2.947.478c-1.498.357-2.91.688-3.818.16-.909-.528-1.375-2.013-1.793-3.438a8.595 8.595 0 00-1.694-3.683 8.594 8.594 0 00-3.683-1.694c-1.425-.418-2.898-.86-3.438-1.793-.54-.933-.197-2.32.16-3.818a8.594 8.594 0 00.343-4.052 8.263 8.263 0 00-2.259-3.216c-1.031-1.093-2.112-2.223-2.112-3.34s1.08-2.247 2.112-3.34a8.263 8.263 0 002.26-3.216 8.594 8.594 0 00-.345-4.052c-.356-1.498-.7-2.91-.16-3.818.541-.909 2.014-1.375 3.439-1.793a8.594 8.594 0 003.683-1.694 8.447 8.447 0 001.694-3.683c.189-.689.418-1.365.688-2.026.072-.165.154-.325.245-.48a2.55 2.55 0 01.234-.355l.171-.184.11-.123c.096-.092.203-.17.32-.233.2-.117.421-.192.65-.221h.075c.245-.02.491-.02.736 0h.123l.798.11h.172l.81.184.454.099h.111l.442.11h.491l.356.062.393.073h.135c.225.013.45.013.675 0h.565a3.83 3.83 0 00.872-.123 8.263 8.263 0 003.217-2.259c1.092-1.031 2.222-2.111 3.34-2.111.134-.017.27-.017.404 0l.418.134a9.737 9.737 0 012.455 1.916 8.263 8.263 0 003.217 2.259c.293.078.594.119.896.123h1.216l.798-.148h.233l.909-.208c.479-.11.957-.221 1.412-.307a3.61 3.61 0 012.455.147c.995.663 1.424 2.136 1.842 3.56zm-4.592-4.764l-1.314.294-1.228.27a5.328 5.328 0 01-2.222.087 7.71 7.71 0 01-2.689-1.965 10.118 10.118 0 00-2.848-2.16 3.537 3.537 0 00-1.228-.295c-1.608 0-2.922 1.227-4.187 2.455a7.71 7.71 0 01-2.688 1.965c-.235.05-.473.078-.712.085h-1.302l-.638-.122h-.11l20.417-20.7 21.375-.258-20.626 20.344z" fill="#354D6F"/></svg>