<svg width="79" height="77" fill="none" xmlns="http://www.w3.org/2000/svg"><path d="M70.882 35.35h-33.03a7.326 7.326 0 00-7.326 7.325v17.217a7.326 7.326 0 007.327 7.327h29.574l9.682 9.585a.573.573 0 00.428.183.525.525 0 00.232 0 .61.61 0 00.378-.733V42.675a7.327 7.327 0 00-7.265-7.326zm6.105 39.439l-8.816-8.73a.573.573 0 00-.427-.184H37.853a6.105 6.105 0 01-6.106-6.105V42.675a6.105 6.105 0 016.106-6.105h33.09a6.105 6.105 0 016.105 6.105l-.06 32.114zM47.62 24.421V7.265A7.326 7.326 0 0040.296 0H7.326A7.326 7.326 0 000 7.265v33.58a.61.61 0 00.379.56.525.525 0 00.232 0 .576.576 0 00.427-.182l9.683-9.537h29.635a7.326 7.326 0 007.265-7.265zm-37.156 6.044a.574.574 0 00-.427.183l-8.816 8.73V7.266A6.105 6.105 0 017.326 1.16h33.09A6.105 6.105 0 0146.4 7.265v17.217a6.106 6.106 0 01-6.105 6.105l-29.83-.122z" fill="#354D6F"/><path d="M23.81 22.528a2.442 2.442 0 100 4.884 2.442 2.442 0 000-4.884zm0 3.664a1.22 1.22 0 110-2.442 1.22 1.22 0 010 2.442zM43.958 46.95a4.274 4.274 0 100 8.547 4.274 4.274 0 000-8.548zm0 7.325a3.053 3.053 0 110-6.105 3.053 3.053 0 010 6.105zm21.979-7.325a4.274 4.274 0 100 8.547 4.274 4.274 0 000-8.548zm0 7.325a3.053 3.053 0 110-6.105 3.053 3.053 0 010 6.105zm-10.99-7.325a4.274 4.274 0 100 8.546 4.274 4.274 0 000-8.547zm0 7.325a3.053 3.053 0 110-6.105 3.053 3.053 0 010 6.105zM25.386 3.76a7.326 7.326 0 00-8.401 4.519 2.295 2.295 0 00.256 2.185 2.442 2.442 0 004.323-.488 2.442 2.442 0 013.992-.758c.28.288.487.64.599 1.027a2.441 2.441 0 01-3.81 2.625.599.599 0 00-.635-.061.623.623 0 00-.342.55v6.104a2.442 2.442 0 004.885 0v-1.636a7.326 7.326 0 00-.867-14.066zm.085 13.042a.61.61 0 00-.44.586v2.088a1.221 1.221 0 01-2.442 0v-5.104a3.663 3.663 0 004.75-4.445A3.663 3.663 0 0020.44 9.5a1.282 1.282 0 01-1.22.818 1.22 1.22 0 01-1.026-.55 1.11 1.11 0 01-.135-1.05 6.105 6.105 0 017.01-3.76 6.105 6.105 0 01.341 11.844h.061z" fill="#354D6F"/></svg>