<svg width="68" height="68" fill="none" xmlns="http://www.w3.org/2000/svg"><path d="M20.887 12.107L1 17.335V67l19.887-5.228V12.107z" stroke="#fff" stroke-width="2" stroke-linecap="round" stroke-linejoin="round"/><path d="M33.044 15.374l-12.157-3.267v49.665L40.773 67V32.286m0 .001V67l19.887-5.228V32.287" stroke="#fff" stroke-width="2" stroke-linecap="round" stroke-linejoin="round"/><path d="M42.068 8.513a12.3 12.3 0 018.633-3.527 12.3 12.3 0 018.635 3.524A12.028 12.028 0 0162 12.415a11.89 11.89 0 01.017 9.231 12.026 12.026 0 01-2.65 3.915l-8.632 8.513-8.655-8.529a12.028 12.028 0 01-2.653-3.904 11.891 11.891 0 01-.006-9.22 12.028 12.028 0 012.647-3.908v0z" stroke="#fff" stroke-width="2" stroke-linecap="round" stroke-linejoin="round"/><path d="M50.716 22.51c3.134 0 5.675-2.504 5.675-5.593 0-3.09-2.54-5.594-5.675-5.594-3.133 0-5.674 2.505-5.674 5.594 0 3.09 2.54 5.594 5.674 5.594z" stroke="#fff" stroke-width="2" stroke-linecap="round" stroke-linejoin="round"/></svg>