<svg width="55" height="59" fill="none" xmlns="http://www.w3.org/2000/svg"><path d="M10.027 2.987c2.432.041 4.626 1.876 5.28 4.322.805 3.133 1.594 6.27 2.37 9.411.483 2.04-.23 4.315-1.866 5.622 0 0-1.308.973-1.928 2.056-2.177 3.805 1.174 8.683 4.823 12.571 3.134 3.34 6.895 6.05 10.956 8.17 2.163 1.104 4.72-.351 5.822-2.49.54-.992 1.719-1.558 2.82-1.293 3.14.838 6.265 1.732 9.39 2.625 2.37.706 4.043 3.08 4.082 5.648.012 2.563.156 5.312-1.365 7.185-.873 1.075-2.146 1.812-3.523 1.996-1.059.13-1.533.135-2.314.165-17.282.661-33.889-11.713-40.876-28.604A48.864 48.864 0 01.072 9.106c.17-3.084 2.212-6.056 5.51-6.119 1.481-.01 2.963-.009 4.445 0zM5.653 5.2c-2.035.013-3.292 2.19-3.394 4.365a45.569 45.569 0 00-.01 4.081c.73 17.321 11.744 34.412 27.77 40.665 5.138 2.005 10.647 2.847 16.244 2.337 1.777-.162 3.221-1.744 3.29-3.568.046-1.683.29-3.474-.265-4.878-.388-.976-1.199-1.794-2.21-2.095-3.096-.885-6.202-1.734-9.303-2.601-.619-.173-.785 1.195-1.407 1.947-1.986 2.403-5.568 2.833-8.52 1.227-6.605-3.593-12.575-8.718-16.053-15.485-1.706-3.32-.903-7.836 2.195-10.206 0 0 2.02-1.725 1.542-3.747-.775-3.14-1.533-6.284-2.369-9.408-.4-1.436-1.665-2.608-3.161-2.634-1.45-.007-2.9 0-4.349 0zM33.32 0c8.263.08 16.05 5.558 19.513 13.273 3.89 8.665 2.531 19.46-3.982 26.698-1.122 1.247-2.965.002-1.55-1.582 6.41-7.258 7.28-18.919 1.908-27.162-4.142-6.357-12.046-10.14-19.523-8.673-3.95.775-7.58 2.904-10.346 5.88 0 0-.475.396-.928.346-.889-.1-1.282-1.234-.387-2.173C21.922 2.57 27.29.092 32.925.002 33.058 0 33.19 0 33.32 0zm-.032 5.764c6.247.06 12.144 4.206 14.76 10.033 2.879 6.413 1.897 14.423-2.717 19.818-.416.487-.933.993-1.563.805-.807-.24-1.074-1.154-.238-2.1 4.636-5.32 5.222-13.797 1.329-19.771-4.522-6.94-15.339-8.945-21.756-2.038 0 0-.398.348-.796.352-.95.01-1.484-1.197-.44-2.259 2.93-2.979 6.985-4.799 11.222-4.84h.199zm.032 6.068c4.102.08 7.929 2.758 9.661 6.557 1.977 4.335 1.24 9.793-2.002 13.376 0 0-.472.475-1.013.398-.94-.132-1.215-1.172-.345-2.202 3.43-4.167 2.742-11.298-1.77-14.436-3.229-2.247-7.99-1.733-10.787 1.277 0 0-.834.595-1.456.14-1.001-.73.337-2.316 1.66-3.236a10.514 10.514 0 016.052-1.873z" fill="#fff"/></svg>