<svg width="61" height="61" fill="none" xmlns="http://www.w3.org/2000/svg"><path d="M50.6 0H10.66C4.924 0 .259 4.665.259 10.4v39.942c0 5.734 4.665 10.4 10.4 10.4H50.6c5.735 0 10.4-4.666 10.4-10.4V10.4C61 4.665 56.335 0 50.6 0zm8.62 50.342c0 4.753-3.866 8.62-8.62 8.62H10.66c-4.754 0-8.62-3.867-8.62-8.62V10.4c0-4.753 3.866-8.62 8.62-8.62H50.6c4.754 0 8.62 3.867 8.62 8.62v39.942z" fill="#0A889B"/><path d="M22.768 42.924c-.385 0-.77-.1-1.122-.301a2.238 2.238 0 01-1.14-1.965V20.893a2.24 2.24 0 011.14-1.965 2.237 2.237 0 012.271.018l16.725 9.883a2.241 2.241 0 011.111 1.947 2.24 2.24 0 01-1.11 1.946l-16.725 9.883c-.36.213-.755.319-1.15.319zm0-22.416a.392.392 0 00-.192.052.371.371 0 00-.194.334v19.765a.37.37 0 00.194.334.374.374 0 00.387-.003l16.724-9.883a.374.374 0 00.19-.331.373.373 0 00-.19-.332l-16.724-9.883a.391.391 0 00-.194-.053z" fill="#0A889B"/></svg>