<svg width="51" height="50" fill="none" xmlns="http://www.w3.org/2000/svg"><path d="M.559 49.884l4.29-12.87a24.383 24.383 0 01-3.43-12.502C1.419 10.975 12.393 0 25.93 0c13.537 0 24.512 10.975 24.512 24.512 0 13.538-10.975 24.512-24.512 24.512a24.403 24.403 0 01-11.405-2.815L.56 49.884z" fill="#354d6f"/><path d="M41.569 32.67c-1.132-2.14-5.306-4.585-5.306-4.585-.944-.539-2.084-.599-2.622.36 0 0-1.357 1.627-1.702 1.861-1.575 1.067-3.035 1.026-4.508-.447l-3.424-3.424-3.424-3.424c-1.473-1.473-1.515-2.933-.447-4.508.234-.345 1.86-1.702 1.86-1.702.96-.539.9-1.678.361-2.622 0 0-2.446-4.174-4.585-5.306a2.345 2.345 0 00-2.755.415L13.505 10.8c-4.796 4.796-2.434 10.211 2.362 15.008l4.384 4.384 4.384 4.384c4.796 4.796 10.211 7.158 15.008 2.361l1.512-1.512a2.346 2.346 0 00.414-2.755z" fill="#fff"/></svg>