<svg width="50" height="50" fill="none" xmlns="http://www.w3.org/2000/svg"><path d="M24.942 49.884c13.775 0 24.942-11.167 24.942-24.942S38.717 0 24.942 0 0 11.167 0 24.942s11.167 24.942 24.942 24.942z" fill="#0A889B"/><path fill-rule="evenodd" clip-rule="evenodd" d="M25.759 30.903c-.961.935-1.913 1.855-2.857 2.783-.33.325-.7.504-1.174.48-.323-.018-.503-.16-.603-.466-.722-2.244-1.456-4.481-2.175-6.727-.07-.217-.172-.323-.393-.391a467.622 467.622 0 01-5.099-1.592 2.899 2.899 0 01-.75-.345c-.348-.236-.4-.621-.087-.898.289-.256.634-.479.992-.62 2.081-.825 4.173-1.624 6.262-2.429l15.906-6.139c1.008-.39 1.783.16 1.678 1.25-.067.697-.248 1.383-.394 2.071-1.15 5.436-2.303 10.872-3.46 16.307-.275 1.29-1.181 1.627-2.243.844-1.78-1.311-3.556-2.626-5.334-3.94-.084-.06-.172-.12-.27-.188zm-3.993 1.65l.06-.016c.011-.05.027-.1.032-.151.114-1.232.235-2.464.334-3.698a.905.905 0 01.323-.655c1.64-1.466 3.269-2.942 4.902-4.414 1.807-1.63 3.615-3.259 5.416-4.895.112-.101.158-.273.235-.413-.17-.018-.352-.086-.506-.046-.21.054-.409.176-.596.294-3.99 2.513-7.975 5.03-11.967 7.537-.226.142-.268.262-.182.51.295.845.562 1.698.84 2.55l1.11 3.397z" fill="#fff"/></svg>