<svg width="50" height="50" fill="none" xmlns="http://www.w3.org/2000/svg"><path d="M25.057 49.884C38.832 49.884 50 38.717 50 24.942S38.832 0 25.057 0 .115 11.167.115 24.942s11.167 24.942 24.942 24.942z" fill="#0A889B"/><path d="M25.057 28.216l14.887-12.744a1.599 1.599 0 00-.857-.273h-28.06a1.6 1.6 0 00-.857.273l14.887 12.744z" fill="#fff"/><path d="M26.07 29.385a1.541 1.541 0 01-2.026 0L9.47 16.953v16.173c0 .858.701 1.56 1.559 1.56h28.06c.857 0 1.558-.702 1.558-1.56V16.914L26.071 29.385z" fill="#fff"/></svg>