<svg width="24" height="23" fill="none" xmlns="http://www.w3.org/2000/svg"><path fill-rule="evenodd" clip-rule="evenodd" d="M22.356 7.103C20.334 2.816 17.213-.167 12.011.007c-3.027.015-5.934.424-8.256 2.68C1.463 4.912.697 7.836.025 10.796c-.083.366.056.817.197 1.19.53 1.42 1.16 2.797 1.954 4.086 1.078 1.748 2.533 3.228 4.467 3.852 2.542.82 5.16 1.637 7.92.973.336-.08.643-.002.937.174 1.322.796 2.822 1.058 4.294 1.391 1.072.243 1.44-.156 1.188-1.253-.285-1.233-.596-2.46-.894-3.689-.24-.992-.477-1.985-.721-2.975-.092-.375-.249-.76-.708-.692-.516.073-.584.517-.545.947.027.281.118.558.18.836.347 1.554.668 3.114 1.054 4.659.158.631-.058.732-.592.6-.874-.216-1.736-.462-2.523-.922-.498-.291-1.04-.625-1.614-.433-2.248.75-4.38-.043-6.506-.51-3.02-.664-6.453-4.785-6.77-7.905a1.932 1.932 0 01.07-.724c.348-1.176.607-2.392 1.1-3.506C3.59 4.466 5.151 2.525 7.914 1.79c1.694-.451 3.373-.542 5.095-.424 4.659.317 8.588 4.508 8.58 9.184-.002 1.23-.122 2.445-.505 3.628-.132.41-.155.865.352 1.022.513.16.762-.248.872-.647.69-2.48 1.165-5.083.048-7.45z" fill="#292929"/><path fill-rule="evenodd" clip-rule="evenodd" d="M9.409 15.955c.142 1.22.873 1.67 2 1.684 1.09.027 2.498-.82 2.992-1.818.388-.779.325-1.398-.694-1.451-.846-.045-.949-.468-.753-1.136.276-.936.623-1.857.828-2.81.165-.776.134-1.595-.832-1.911-.71-.232-3.26.48-3.403.935-.058.174.031.388.035.584.04 1.211.464 2.409-.137 3.634-.343.699-.13 1.514-.036 2.29zm1.5-5.046c-.124-.21-.462-.526-.066-.713.463-.222 1.015-.48 1.51-.253.339.16.08.588-.01.886-.186.623-.418 1.233-.596 1.857-.33 1.18-.379 2.284.94 2.94-.414.619-.953.815-1.532.64-.66-.2-.477-.863-.54-1.358-.08-.623.103-1.215.344-1.777.33-.757.396-1.483-.05-2.222zm.099-3.429c1.269.044 2.253-.766 2.258-1.858.009-1.425-.78-2.222-2.272-2.29-.957-.043-1.603.696-1.625 1.858-.027 1.368.605 2.254 1.639 2.29zm.209-2.748c.463.048.717.303.726.784-.03.472-.392.6-.748.596-.495-.008-.49-.45-.517-.797-.03-.36.098-.636.539-.583z" fill="#292929"/></svg>