<svg width="48" height="48" fill="none" xmlns="http://www.w3.org/2000/svg"><path d="M24.323 47.352C37.4 47.352 48 36.752 48 23.676 48 10.6 37.4 0 24.323 0 11.248 0 .647 10.6.647 23.676c0 13.076 10.6 23.676 23.676 23.676z" fill="#0A889B"/><path d="M24.324 26.783l14.131-12.097a1.517 1.517 0 00-.813-.259H11.006a1.51 1.51 0 00-.814.26l14.132 12.096z" fill="#fff"/><path d="M25.286 27.893c-.555.48-1.37.48-1.924 0L9.526 16.092v15.352c0 .814.666 1.48 1.48 1.48h26.636c.813 0 1.48-.666 1.48-1.48v-15.39l-13.837 11.84z" fill="#fff"/></svg>