<svg width="83" height="83" fill="none" xmlns="http://www.w3.org/2000/svg"><circle cx="41.5" cy="41.5" r="41.5" fill="#354D6F"/><circle cx="42" cy="42" r="33.5" fill="#354D6F" stroke="#fff" stroke-width="3"/><path d="M52.859 47.14c-1.037-1.066-3.984-3.062-5.916-3.062-.447 0-.838.1-1.157.305-.945.604-1.698 1.073-2.06 1.073-.199 0-.412-.178-.88-.582l-.078-.071c-1.3-1.13-1.577-1.42-2.081-1.947l-.128-.134c-.092-.093-.17-.178-.248-.256-.44-.455-.76-.781-1.89-2.06l-.05-.057c-.539-.61-.894-1.008-.915-1.3-.022-.283.227-.745.859-1.604.767-1.037.795-2.316.092-3.8-.56-1.172-1.477-2.294-2.286-3.281l-.071-.086C35.354 29.426 34.544 29 33.642 29c-1 0-1.832.54-2.272.824-.036.021-.071.05-.107.07-.987.626-1.704 1.485-1.974 2.359-.405 1.314-.674 3.018 1.264 6.562 1.676 3.069 3.196 5.128 5.61 7.607 2.273 2.33 3.281 3.082 5.54 4.716C44.215 52.956 46.63 54 48.32 54c1.57 0 2.805 0 4.566-2.124 1.846-2.23 1.08-3.593-.028-4.737z" fill="#fff"/></svg>