<svg width="23" height="22" fill="none" xmlns="http://www.w3.org/2000/svg"><path d="M8.532 2.633c1.125.097 2.76.06 3.766.628 1.63.919 1.525 3.383 1.344 4.939-.293 2.503-1.682 5.203-4.533 5.32-2.963.123-5.605-2.057-5.757-5.044C3.19 5.294 6.456 3.81 8.673 2.27c.75-.52-.045-1.69-.795-1.17-3.06 2.123-6.778 4.153-5.77 8.509.797 3.439 4.166 5.86 7.767 5.245 3.502-.597 5.054-4.047 5.224-7.262.083-1.564.007-3.416-1.058-4.677-1.27-1.505-3.43-1.517-5.243-1.673-.899-.077-1.174 1.313-.266 1.39z" fill="#292929"/><path d="M5.064 7.52c-.069.959.281 1.992.865 2.764.583.77 1.64 1.11 2.505 1.445.845.326 1.476-.942.626-1.27-.564-.218-1.267-.423-1.756-.79-.468-.35-.892-1.298-.85-1.884.064-.898-1.326-1.174-1.39-.265zm7.726 5.96l2.836 4.58c.307.495.598 1.007.99 1.442.532.591 1.215.985 1.67 1.65.516.753 1.687-.042 1.172-.795-.783-1.143-1.914-1.888-2.661-3.092-.947-1.526-1.89-3.054-2.836-4.581-.48-.776-1.65.021-1.171.795z" fill="#292929"/></svg>