<svg width="23" height="23" fill="none" xmlns="http://www.w3.org/2000/svg"><path fill-rule="evenodd" clip-rule="evenodd" d="M12.383.446l2.9 6.157a.767.767 0 00.575.438l6.485.987a.81.81 0 01.423 1.364l-4.692 4.793a.824.824 0 00-.22.708l1.108 6.767a.771.771 0 01-1.108.844l-5.8-3.196a.733.733 0 00-.71 0l-5.8 3.196a.771.771 0 01-1.108-.844l1.108-6.767a.824.824 0 00-.22-.708L.632 9.392a.81.81 0 01.423-1.364l6.484-.987a.767.767 0 00.575-.438l2.9-6.157a.748.748 0 011.37 0z" fill="#D6D6D6"/><path fill-rule="evenodd" clip-rule="evenodd" d="M14.577 5.108c-1.87 1-3.598 2.248-5.135 3.709a22.331 22.331 0 00-4.122 5.365L.63 9.393a.81.81 0 01.424-1.363l6.483-.99a.778.778 0 00.577-.436l2.898-6.16a.751.751 0 011.372 0l2.193 4.664z" fill="#F7F7F7"/></svg>