<svg width="23" height="23" fill="none" xmlns="http://www.w3.org/2000/svg"><path fill-rule="evenodd" clip-rule="evenodd" d="M12.185.446l2.9 6.157a.767.767 0 00.575.438l6.485.987a.81.81 0 01.423 1.364l-4.693 4.793a.824.824 0 00-.22.708l1.109 6.767a.771.771 0 01-1.108.844l-5.8-3.196a.733.733 0 00-.71 0l-5.8 3.196a.771.771 0 01-1.108-.844l1.107-6.767a.824.824 0 00-.22-.708L.434 9.392a.81.81 0 01.423-1.364l6.485-.987a.767.767 0 00.575-.438l2.9-6.157a.748.748 0 011.37 0z" fill="#0A889B"/><path fill-rule="evenodd" clip-rule="evenodd" d="M14.379 5.108c-1.87 1-3.598 2.248-5.135 3.709a22.331 22.331 0 00-4.122 5.365L.43 9.393A.81.81 0 01.856 8.03l6.483-.99a.778.778 0 00.576-.436l2.9-6.16a.751.751 0 011.37 0l2.194 4.664z" fill="#26A59A"/></svg>