<svg width="49" height="48" fill="none" xmlns="http://www.w3.org/2000/svg"><path d="M.824 47.352l4.072-12.216a23.144 23.144 0 01-3.255-11.868C1.64 10.418 12.058 0 24.908 0s23.268 10.417 23.268 23.268c0 12.85-10.417 23.267-23.268 23.267-3.91 0-7.591-.969-10.825-2.672L.824 47.352z" fill="#0A889B"/><path d="M39.754 31.011c-1.075-2.03-5.036-4.352-5.036-4.352-.897-.511-1.979-.568-2.49.343 0 0-1.287 1.544-1.615 1.766-1.495 1.013-2.88.973-4.28-.425l-3.25-3.25-3.25-3.25c-1.398-1.399-1.437-2.784-.424-4.28.222-.327 1.766-1.615 1.766-1.615.911-.512.854-1.593.343-2.489 0 0-2.322-3.962-4.352-5.036a2.226 2.226 0 00-2.616.393l-1.435 1.435c-4.553 4.554-2.311 9.694 2.242 14.247l4.161 4.161 4.162 4.161c4.553 4.553 9.693 6.795 14.246 2.242l1.435-1.435a2.23 2.23 0 00.393-2.616z" fill="#fff"/></svg>