<svg width="48" height="48" fill="none" xmlns="http://www.w3.org/2000/svg"><path d="M23.676 47.352c13.076 0 23.676-10.6 23.676-23.676C47.352 10.6 36.752 0 23.676 0 10.6 0 0 10.6 0 23.676c0 13.076 10.6 23.676 23.676 23.676z" fill="#0A889B"/><path fill-rule="evenodd" clip-rule="evenodd" d="M24.451 29.334c-.912.888-1.816 1.762-2.711 2.642-.313.308-.665.479-1.114.455-.307-.017-.479-.151-.573-.442-.686-2.13-1.382-4.253-2.064-6.385-.067-.206-.165-.307-.374-.372a430.05 430.05 0 01-4.84-1.51 2.756 2.756 0 01-.712-.328c-.33-.224-.379-.59-.082-.853.274-.242.601-.454.941-.589 1.976-.783 3.962-1.54 5.945-2.305l15.098-5.827c.957-.37 1.692.151 1.593 1.186-.064.662-.235 1.313-.374 1.967-1.092 5.16-2.186 10.32-3.285 15.478-.26 1.225-1.121 1.545-2.13.802-1.688-1.245-3.374-2.493-5.062-3.74-.08-.058-.164-.114-.256-.179zm-3.79 1.567l.057-.015c.01-.049.026-.096.03-.144.109-1.17.223-2.339.317-3.51a.86.86 0 01.307-.622c1.556-1.392 3.103-2.793 4.653-4.19 1.716-1.547 3.432-3.093 5.142-4.647.105-.095.15-.258.222-.391-.16-.018-.333-.082-.48-.044-.199.051-.388.167-.566.28-3.786 2.384-7.57 4.773-11.359 7.153-.214.135-.254.25-.172.484.279.803.533 1.613.797 2.42l1.052 3.226z" fill="#fff"/></svg>